<svg width="297" height="55" viewBox="0 0 297 55" fill="none" xmlns="http://www.w3.org/2000/svg">
<path d="M37.3125 53L36.1562 47.125H19.0625L15.6875 53H0L31.9062 2H39.125L51.25 53H37.3125ZM24.6875 37.3438H34.2188L31.7812 25.0312L24.6875 37.3438ZM76.1562 54.0938C60.6562 54.0938 52.3125 41.9062 54.6562 27.1875C57.375 9.9375 72.8438 0.5 85.75 1.59375C92.7812 2.1875 99.25 5.9375 102.5 11.6875L92.75 20.5312C89.9375 16.2812 86.6875 14.4062 82.7812 14.4062C76.1562 14.4062 69.9375 19.6562 68.4062 27.2188C66.875 34.7188 70.5312 41.4062 78.3125 41.4062C82.125 41.4062 85.75 39.7188 89.5 36.7812L95.4688 47.3438C90.0938 51.8125 82.7188 54.0938 76.1562 54.0938ZM122.656 54.0938C107.156 54.0938 98.8125 41.9062 101.156 27.1875C103.875 9.9375 119.344 0.5 132.25 1.59375C139.281 2.1875 145.75 5.9375 149 11.6875L139.25 20.5312C136.438 16.2812 133.188 14.4062 129.281 14.4062C122.656 14.4062 116.438 19.6562 114.906 27.2188C113.375 34.7188 117.031 41.4062 124.812 41.4062C128.625 41.4062 132.25 39.7188 136 36.7812L141.969 47.3438C136.594 51.8125 129.219 54.0938 122.656 54.0938ZM168.344 54.125C154.125 53.3438 145.594 42.7188 147.562 27.875C149.656 11.9375 162.531 1.03125 177.781 1.875C192.156 2.65625 200.594 13.4688 198.594 28.3125C196.438 44.3125 183.438 54.9375 168.344 54.125ZM170.656 41.5312C177.906 41.7812 183.719 35.7188 184.969 28.0625C186.25 20.25 182.219 14.5938 175.531 14.4062C168.5 14.1562 162.469 19.9688 161.188 27.875C159.969 35.375 163.656 41.3125 170.656 41.5312ZM242.812 19.9062C241.719 26.4375 237.344 31.5 231.406 33.3438L241.844 53H227.125L217.875 33.6875L214.125 53H200.5L210.219 2.625H227.125C237.344 2.625 244.594 9.375 242.812 19.9062ZM221.5 14.8125L219.594 24.5938L223.219 24.625C226.562 24.6875 229.031 22.7812 229.469 19.875C229.906 16.9688 227.969 14.8125 225.125 14.8125H221.5ZM272.906 2.625C283.438 2.59375 296.812 8.75 294.469 27.875C291.438 53 267.156 53 263.125 53H246.688L256.469 2.65625L272.906 2.625ZM280.75 27.8125C281.906 19.625 277.062 15.125 270.094 15.125H267.656L262.75 40.4062H265.281C271.156 40.4062 279.438 37.4375 280.75 27.8125Z" fill="white"/>
</svg>
