<svg width="594" height="109" viewBox="0 0 594 109" fill="none" xmlns="http://www.w3.org/2000/svg">
<path d="M74.625 105L72.3125 93.25H38.125L31.375 105H0L63.8125 3H78.25L102.5 105H74.625ZM49.375 73.6875H68.4375L63.5625 49.0625L49.375 73.6875ZM152.312 107.188C121.312 107.188 104.625 82.8125 109.312 53.375C114.75 18.875 145.688 0 171.5 2.1875C185.562 3.375 198.5 10.875 205 22.375L185.5 40.0625C179.875 31.5625 173.375 27.8125 165.562 27.8125C152.312 27.8125 139.875 38.3125 136.812 53.4375C133.75 68.4375 141.062 81.8125 156.625 81.8125C164.25 81.8125 171.5 78.4375 179 72.5625L190.938 93.6875C180.188 102.625 165.438 107.188 152.312 107.188ZM245.312 107.188C214.312 107.188 197.625 82.8125 202.312 53.375C207.75 18.875 238.688 0 264.5 2.1875C278.562 3.375 291.5 10.875 298 22.375L278.5 40.0625C272.875 31.5625 266.375 27.8125 258.562 27.8125C245.312 27.8125 232.875 38.3125 229.812 53.4375C226.75 68.4375 234.062 81.8125 249.625 81.8125C257.25 81.8125 264.5 78.4375 272 72.5625L283.938 93.6875C273.188 102.625 258.438 107.188 245.312 107.188ZM336.688 107.25C308.25 105.688 291.188 84.4375 295.125 54.75C299.312 22.875 325.062 1.0625 355.562 2.75C384.312 4.3125 401.188 25.9375 397.188 55.625C392.875 87.625 366.875 108.875 336.688 107.25ZM341.312 82.0625C355.812 82.5625 367.438 70.4375 369.938 55.125C372.5 39.5 364.438 28.1875 351.062 27.8125C337 27.3125 324.938 38.9375 322.375 54.75C319.938 69.75 327.312 81.625 341.312 82.0625ZM485.625 38.8125C483.438 51.875 474.688 62 462.812 65.6875L483.688 105H454.25L435.75 66.375L428.25 105H401L420.438 4.25H454.25C474.688 4.25 489.188 17.75 485.625 38.8125ZM443 28.625L439.188 48.1875L446.438 48.25C453.125 48.375 458.062 44.5625 458.938 38.75C459.812 32.9375 455.938 28.625 450.25 28.625H443ZM545.812 4.25C566.875 4.1875 593.625 16.5 588.938 54.75C582.875 105 534.312 105 526.25 105H493.375L512.938 4.3125L545.812 4.25ZM561.5 54.625C563.812 38.25 554.125 29.25 540.188 29.25H535.312L525.5 79.8125H530.562C542.312 79.8125 558.875 73.875 561.5 54.625Z" fill="white"/>
</svg>
